<svg width="32" height="32" viewBox="0 0 100 100" fill="none" xmlns="http://www.w3.org/2000/svg">
  <circle cx="50" cy="50" r="46" stroke="#16a34a" stroke-width="4" fill="white"/>
  <g stroke="#16a34a" stroke-width="1.5" opacity="0.8">
    <ellipse cx="50" cy="50" rx="35" ry="12"/>
    <ellipse cx="50" cy="50" rx="35" ry="25"/>
    <ellipse cx="50" cy="50" rx="35" ry="35"/>
    <ellipse cx="50" cy="50" rx="12" ry="35"/>
    <ellipse cx="50" cy="50" rx="25" ry="35"/>
    <line x1="20" y1="30" x2="80" y2="70"/>
    <line x1="80" y1="30" x2="20" y2="70"/>
    <line x1="25" y1="50" x2="75" y2="50"/>
    <line x1="50" y1="20" x2="50" y2="80"/>
  </g>
  <circle cx="50" cy="50" r="5" fill="#f97316"/>
  <circle cx="50" cy="20" r="4" fill="#0ea5e9"/>
  <circle cx="35" cy="25" r="3.5" fill="#16a34a"/>
  <circle cx="65" cy="25" r="3.5" fill="#16a34a"/>
  <circle cx="20" cy="40" r="4" fill="#0ea5e9"/>
  <circle cx="80" cy="40" r="4" fill="#0ea5e9"/>
  <circle cx="35" cy="38" r="3" fill="#f97316"/>
  <circle cx="65" cy="38" r="3" fill="#f97316"/>
  <circle cx="18" cy="55" r="3.5" fill="#16a34a"/>
  <circle cx="82" cy="55" r="3.5" fill="#16a34a"/>
  <circle cx="35" cy="50" r="3" fill="#0ea5e9"/>
  <circle cx="65" cy="50" r="3" fill="#0ea5e9"/>
  <circle cx="25" cy="70" r="4" fill="#f97316"/>
  <circle cx="75" cy="70" r="4" fill="#f97316"/>
  <circle cx="35" cy="62" r="3" fill="#16a34a"/>
  <circle cx="65" cy="62" r="3" fill="#16a34a"/>
  <circle cx="50" cy="80" r="4" fill="#0ea5e9"/>
  <circle cx="40" cy="75" r="3" fill="#f97316"/>
  <circle cx="60" cy="75" r="3" fill="#f97316"/>
</svg>
